<svg xmlns="http://www.w3.org/2000/svg" viewBox="0 0 512 640" x="0px" y="0px"><g data-name="ARROW 48"><path d="M105.8,208.23,232,82V488a24,24,0,0,0,48,0V82l126.2,126.2a24,24,0,0,0,33.94-33.94L273,7.12,272.84,7c-.23-.23-.47-.46-.72-.68l-.26-.23-.63-.54L271,5.36l-.7-.55-.16-.11c-.27-.2-.54-.39-.82-.57l-.06,0A23.77,23.77,0,0,0,258.38.21l-.17,0-1-.07q-.6,0-1.2,0t-1.2,0l-1,.07-.17,0a23.77,23.77,0,0,0-10.88,3.88l-.06,0c-.28.18-.55.37-.82.57l-.16.11-.7.55-.23.18-.63.54-.26.23c-.25.22-.49.45-.72.68a1.59,1.59,0,0,1-.13.13L71.86,174.29a24,24,0,0,0,33.94,33.94Z"/></g><text x="0" y="527" fill="#000000" font-size="5px" font-weight="bold" font-family="'Helvetica Neue', Helvetica, Arial-Unicode, Arial, Sans-serif">Created by iconbysonny</text><text x="0" y="532" fill="#000000" font-size="5px" font-weight="bold" font-family="'Helvetica Neue', Helvetica, Arial-Unicode, Arial, Sans-serif">from the Noun Project</text></svg>